<svg xmlns="http://www.w3.org/2000/svg" width="44.906" height="44.906" viewBox="0 0 44.906 44.906">
  <g id="グループ_606" data-name="グループ 606" transform="translate(0)">
    <rect id="長方形_181" data-name="長方形 181" width="44.906" height="44.906" rx="8.735" transform="translate(0 0)"/>
    <g id="グループ_601" data-name="グループ 601" transform="translate(7.477 8.187)">
      <g id="グループ_600" data-name="グループ 600">
        <g id="グループ_598" data-name="グループ 598">
          <path id="パス_494" data-name="パス 494" d="M1095.884,740.466c0-6.7-6.717-12.15-14.972-12.15s-14.972,5.45-14.972,12.15c0,6.005,5.326,11.036,12.521,11.987.488.106,1.152.322,1.319.738a3.051,3.051,0,0,1,.049,1.353s-.175,1.057-.213,1.282c-.066.379-.3,1.481,1.3.808s8.622-5.077,11.763-8.693h0A10.8,10.8,0,0,0,1095.884,740.466Z" transform="translate(-1065.94 -728.316)" fill="#fff"/>
        </g>
        <g id="グループ_599" data-name="グループ 599" transform="translate(4.911 8.913)">
          <path id="パス_495" data-name="パス 495" d="M1088.1,743.112h-4.207a.285.285,0,0,1-.285-.286v0h0V736.3h0v-.007a.285.285,0,0,1,.285-.285h4.207a.287.287,0,0,1,.286.285v1.062a.286.286,0,0,1-.286.286h-2.859v1.1h2.859a.287.287,0,0,1,.286.286v1.062a.286.286,0,0,1-.286.286h-2.859v1.1h2.859a.287.287,0,0,1,.286.286v1.062A.286.286,0,0,1,1088.1,743.112Z" transform="translate(-1068.045 -736.007)"/>
          <path id="パス_496" data-name="パス 496" d="M1074.67,743.112a.286.286,0,0,0,.286-.286v-1.062a.287.287,0,0,0-.286-.286h-2.859v-5.186a.287.287,0,0,0-.285-.285h-1.062a.285.285,0,0,0-.286.285v6.529h0v0a.285.285,0,0,0,.286.286h4.206Z" transform="translate(-1070.178 -736.007)"/>
          <rect id="長方形_182" data-name="長方形 182" width="1.633" height="7.106" rx="0.247" transform="translate(5.677)"/>
          <path id="パス_497" data-name="パス 497" d="M1083.288,736.007h-1.061a.286.286,0,0,0-.286.285v3.881l-2.989-4.038a.253.253,0,0,0-.023-.029l0,0-.016-.017-.006-.006-.015-.013-.008-.006-.015-.01-.009,0-.015-.009-.01,0-.017-.007-.009,0-.018-.006-.009,0-.017,0-.012,0h-1.1a.285.285,0,0,0-.285.285v6.534a.285.285,0,0,0,.285.286h1.063a.285.285,0,0,0,.285-.286v-3.879l2.993,4.042a.313.313,0,0,0,.074.072l0,0,.017.01.008,0,.014.007.014.006.009,0,.02.006h0a.264.264,0,0,0,.074.01h1.056a.285.285,0,0,0,.286-.286v-6.534A.285.285,0,0,0,1083.288,736.007Z" transform="translate(-1069.036 -736.007)"/>
        </g>
      </g>
    </g>
  </g>
</svg>
