<svg xmlns="http://www.w3.org/2000/svg" xmlns:xlink="http://www.w3.org/1999/xlink" width="340.768" height="69.835" viewBox="0 0 340.768 69.835">
  <defs>
    <clipPath id="clip-path">
      <rect id="長方形_109" data-name="長方形 109" width="340.768" height="69.835" fill="none"/>
    </clipPath>
  </defs>
  <g id="_dammy_logo" clip-path="url(#clip-path)">
    <path id="パス_330" data-name="パス 330" d="M34.914,0A34.919,34.919,0,1,0,69.832,34.92,34.919,34.919,0,0,0,34.914,0m32.4,24.48L57.4,42.221,29.727,1.269A34.085,34.085,0,0,1,67.317,24.48M50.273,54.97c-.741-.763-2.412-2.486-3.494-3.606a11.745,11.745,0,0,0,2.233-7.048h-.871a10.878,10.878,0,0,1-1.982,6.4c-3.752-3.865-7.069-7.277-9.267-9.546.253-.044.482-.1.746-.134,3.76-.5,6-2.789,6-6.114a5.81,5.81,0,1,0-11.621,0,6.277,6.277,0,0,0,2.035,4.57s.427.444,1.135,1.171c-3.736,1.06-5.6,3.317-5.628,6.892A14.6,14.6,0,0,0,18.62,34.926,14.54,14.54,0,0,0,16.453,6.34,33.77,33.77,0,0,1,28.8,1.438L56.929,43.073ZM45.608,51.41a9.278,9.278,0,0,1-7.1,3.216c-3.976,0-8.09-2.609-8.09-6.969,0-3.364,1.752-5.4,5.449-6.288C38.22,43.8,42.4,48.1,45.611,51.421M34.7,38.912a5.391,5.391,0,0,1-1.8-3.981,4.936,4.936,0,1,1,9.872,0c0,1.367-.5,4.625-5.242,5.25-.49.066-.921.166-1.356.253-.251-.253-1.474-1.522-1.474-1.522M15.522,7.153a13.669,13.669,0,0,1,0,27.319Zm0,28.216a13.669,13.669,0,0,1,0,27.317ZM.873,34.923A34.015,34.015,0,0,1,14.649,7.588l0,54.673A34.009,34.009,0,0,1,.873,34.923M16.453,63.5A14.56,14.56,0,0,0,29.625,49.028c0-.122-.011-.243-.011-.362.575,4.3,4.8,6.835,8.889,6.835a10.145,10.145,0,0,0,7.718-3.451c1.742,1.8,3.118,3.216,3.612,3.723L43.008,67.983A33.917,33.917,0,0,1,16.454,63.5m27.724,4.174L67.668,25.64A34,34,0,0,1,44.178,67.675" transform="translate(-0.002 -0.001)"/>
    <path id="パス_331" data-name="パス 331" d="M75.975,4.274H60.593V6.2h6.726V23.511h1.926V6.2h6.729Z" transform="translate(104.419 7.365)"/>
    <path id="パス_332" data-name="パス 332" d="M127.012,4.274h-15.39V6.2h6.726V23.511h1.936V6.2h6.726Z" transform="translate(192.355 7.365)"/>
    <path id="パス_333" data-name="パス 333" d="M67.416,4.274V14.861a6.732,6.732,0,1,1-13.464,0V4.274H52.029V14.861a8.65,8.65,0,1,0,17.3,0V4.274Z" transform="translate(89.66 7.363)"/>
    <path id="パス_334" data-name="パス 334" d="M118.446,4.274V14.861a6.729,6.729,0,0,1-13.459,0V4.274h-1.931V14.861a8.662,8.662,0,0,0,17.325,0V4.274Z" transform="translate(177.593 7.363)"/>
    <path id="パス_335" data-name="パス 335" d="M132.95,4.274v8.66H121.425V4.274h-1.944V23.511h1.944V14.857H132.95v8.654h1.926V4.274Z" transform="translate(205.892 7.365)"/>
    <path id="パス_336" data-name="パス 336" d="M93.775,13.894a9.617,9.617,0,1,0,9.618-9.619,9.617,9.617,0,0,0-9.618,9.619m1.926,0a7.7,7.7,0,1,1,7.693,7.7,7.7,7.7,0,0,1-7.693-7.7" transform="translate(161.599 7.365)"/>
    <path id="パス_337" data-name="パス 337" d="M40.011,13.894a5.287,5.287,0,0,0-3.037-9.619H31.212V23.512h5.762a5.287,5.287,0,0,0,3.037-9.619M33.135,6.2h3.839a3.367,3.367,0,1,1,0,6.735H33.135Zm3.839,15.4H33.135V14.855h3.9a3.37,3.37,0,1,1-.063,6.741" transform="translate(53.789 7.365)"/>
    <path id="パス_338" data-name="パス 338" d="M48.541,6.2V4.275H37.481V23.512h11.06V21.6H39.4V14.856h9.137V12.935H39.4V6.2Z" transform="translate(64.59 7.365)"/>
    <path id="パス_339" data-name="パス 339" d="M45.844,23.512l2.412-4.81H58.378l2.412,4.81h2.156L53.329,4.275,43.7,23.512ZM53.322,8.57l4.1,8.211h-8.2Z" transform="translate(75.311 7.365)"/>
    <path id="パス_340" data-name="パス 340" d="M84.225,4.275l-6.8,9.416-6.794-9.42H68.26l8.195,11.372v7.865h1.931v-7.86l8.2-11.372Z" transform="translate(117.634 7.364)"/>
    <path id="パス_341" data-name="パス 341" d="M92.063,23.514h2.628s-2.069-2.227-3.393-3.638a9.027,9.027,0,0,0,1.458-5.019H90.825a7.447,7.447,0,0,1-.871,3.562c-2.576-2.765-4.314-4.641-5.234-5.628a6.344,6.344,0,0,0,2.435-1.3A3.711,3.711,0,0,0,88.426,8.6a4.33,4.33,0,1,0-8.66,0,4.353,4.353,0,0,0,1.3,2.984s.245.3.268.33c-2.084.938-3.968,2.5-3.968,5.338a5.787,5.787,0,0,0,2.3,4.6,8.09,8.09,0,0,0,4.91,1.659,7.935,7.935,0,0,0,5.494-2.151c.618.683,1.987,2.151,1.987,2.151M84.1,6.2a2.42,2.42,0,0,1,2.411,2.4c0,.741-.283,1.8-2.665,2.44a5.986,5.986,0,0,0-.588.172c-.18-.2-.316-.356-.5-.583l-.209-.268c-.646-.776-.86-1.143-.86-1.762a2.412,2.412,0,0,1,2.412-2.4m.474,15.4a6.03,6.03,0,0,1-3.717-1.258,3.87,3.87,0,0,1-1.575-3.082,3.175,3.175,0,0,1,1.132-2.53,7.256,7.256,0,0,1,2.271-1.282c.488.523,3.121,3.35,6.076,6.517A6.049,6.049,0,0,1,84.575,21.6" transform="translate(133.323 7.363)"/>
    <path id="パス_342" data-name="パス 342" d="M102.047,4.274,95.261,13.69,88.469,4.274H86.1l8.2,11.372v7.865h1.926V15.647l8.208-11.372Z" transform="translate(148.368 7.365)"/>
    <path id="パス_343" data-name="パス 343" d="M41.017,16.876h1.234v6.713a5.519,5.519,0,1,1-11.037,0V16.876h1.237v6.713a4.288,4.288,0,1,0,8.567,0Z" transform="translate(53.788 29.08)"/>
    <path id="パス_344" data-name="パス 344" d="M46.262,16.852H47.5V29.1l-9.8-9.369V29.1H36.469V16.852l9.793,9.381Z" transform="translate(62.847 29.04)"/>
    <rect id="長方形_108" data-name="長方形 108" width="1.232" height="12.253" transform="translate(113.953 45.928)"/>
    <path id="パス_345" data-name="パス 345" d="M53.436,16.852v1.24H49.154V29.1H47.932V18.092H43.644v-1.24Z" transform="translate(75.204 29.04)"/>
    <path id="パス_346" data-name="パス 346" d="M55.5,18.086H49.679v4.288H55.5v1.234H49.679v4.27H55.5v1.234H48.476V16.876H55.5Z" transform="translate(83.537 29.081)"/>
    <path id="パス_347" data-name="パス 347" d="M56.511,16.865a6.126,6.126,0,0,1,0,12.253H52.223V16.865Zm0,11.013a4.9,4.9,0,1,0,0-9.791H53.456v9.791Z" transform="translate(89.992 29.062)"/>
    <path id="パス_348" data-name="パス 348" d="M61.031,29.095H59.656l6.14-12.23,6.127,12.23H70.535l-1.514-3.058H62.567Zm4.765-9.5-2.619,5.226H68.4Z" transform="translate(102.803 29.062)"/>
    <path id="パス_349" data-name="パス 349" d="M66.473,23.586v5.509H65.267V16.865h6.868a3.361,3.361,0,1,1,.1,6.721l3.437,5.509H74.224l-3.443-5.509Zm0-5.494V22.38H72.13a2.144,2.144,0,0,0,0-4.288Z" transform="translate(112.468 29.061)"/>
    <path id="パス_350" data-name="パス 350" d="M71.445,23.586v5.509H70.226V16.865h6.865a3.361,3.361,0,1,1,.1,6.721l3.432,5.509H79.181l-3.424-5.509Zm0-5.494V22.38h5.646a2.144,2.144,0,0,0,0-4.288Z" transform="translate(121.018 29.061)"/>
    <path id="パス_351" data-name="パス 351" d="M75.161,22.992A6.12,6.12,0,1,1,81.283,29.1a6.12,6.12,0,0,1-6.122-6.105m1.228,0a4.9,4.9,0,1,0,4.894-4.9,4.9,4.9,0,0,0-4.894,4.9" transform="translate(129.523 29.059)"/>
    <path id="パス_352" data-name="パス 352" d="M95.722,16.876h1.332l-4.5,12.238-3.618-8.957-3.646,8.957L80.8,16.876h1.324l3.216,8.8,3.589-8.8,3.57,8.8Z" transform="translate(139.232 29.08)"/>
    <path id="パス_353" data-name="パス 353" d="M90.373,17.556a6.983,6.983,0,0,1,3-.691,5.966,5.966,0,0,1,3.232.955,3.332,3.332,0,0,1,1.67,2.728H97.036a2.166,2.166,0,0,0-1.1-1.7,4.89,4.89,0,0,0-2.568-.76,5.607,5.607,0,0,0-2.432.556,2.025,2.025,0,0,0-1.245,1.89,1.309,1.309,0,0,0,1,1.3,12.823,12.823,0,0,0,2.92.57,12.388,12.388,0,0,1,3.4.691,2.688,2.688,0,0,1,1.863,2.631,2.975,2.975,0,0,1-1.934,2.639,8.388,8.388,0,0,1-3.573.744,7.391,7.391,0,0,1-3.63-.91,3.549,3.549,0,0,1-1.876-3.082h1.222a2.278,2.278,0,0,0,1.282,2.01,6,6,0,0,0,3,.738,7.013,7.013,0,0,0,3.031-.6c.85-.4,1.24-.938,1.24-1.541a1.5,1.5,0,0,0-1.1-1.52,12.29,12.29,0,0,0-3.082-.586,13.171,13.171,0,0,1-3.216-.641,2.525,2.525,0,0,1-1.768-2.448,3.244,3.244,0,0,1,1.9-2.976" transform="translate(151.415 29.062)"/>
  </g>
</svg>
