<svg xmlns="http://www.w3.org/2000/svg" width="406.173" height="489.359" viewBox="0 0 406.173 489.359">
  <g id="グループ_128" data-name="グループ 128" transform="translate(-1746.322 -4279.395)">
    <g id="グループ_124" data-name="グループ 124" transform="translate(1746.322 4279.395)">
      <g id="グループ_123" data-name="グループ 123">
        <g id="グループ_122" data-name="グループ 122">
          <path id="パス_65" data-name="パス 65" d="M1756.106,4295.4c0-4.891-1.42-7.1-6.627-7.257-2.525,0-3.156-.158-3.156-1.419,0-.948.158-1.421,5.523-3a82.149,82.149,0,0,1,20.985-2.841c25.72,0,32.505,11.834,32.505,23.194,0,11.519-8.521,18.462-19.092,22.091v.315c12.465,2.051,24.141,9.625,24.141,27.3,0,15.778-8.362,29.034-29.347,29.034-4.734,0-8.837-.316-17.356-.316-8.205,0-11.361.316-12.782.316-2.051,0-3.314-.632-3.314-2.053,0-1.734,3-1.734,4.892-2.366,3.156-.947,3.629-2.21,3.629-6Zm10.414,27.612c0,1.893.947,2.051,4.419,2.051,16.725,0,22.72-7.258,22.72-20.67,0-11.361-5.207-19.723-16.726-19.723-8.2,0-10.413,1.578-10.413,5.838Zm0,45.916c0,5.839,2.84,10.1,11.361,10.1,13.411,0,20.828-8.836,20.828-26.667,0-14.832-8.206-23.51-22.091-23.51-9.151,0-9.782.158-10.1,1.419Z" transform="translate(-1746.322 -4278.99)"/>
          <path id="パス_66" data-name="パス 66" d="M1807.009,4292c0-3.471-.947-4.733-3-5.207-3.787-.947-6.154-.473-6.154-2.524,0-1.1.947-1.894,3.945-1.894,3.629,0,10.729.631,23.984.631,15.463,0,23.195-.631,26.509-.631s3.628.316,3.629,6.784c0,17.516,0,18.621-1.736,18.621-1.42,0-1.42-.474-2.683-4.1-4.418-12.938-10.1-17.514-23.984-17.514-8.994,0-10.1.947-10.1,3.63v34.554c0,2.524.316,2.84,6.943,2.84,10.256,0,13.57-1.578,15.3-6.943,1.892-5.838,1.735-6.626,3.155-6.626,1.1,0,1.262.788,1.262,3.156,0,3.47-.63,6.31-.63,12.622,0,5.05.631,10.729.631,15.306,0,1.893-.631,2.366-1.736,2.366s-1.578-1.263-2.683-5.048c-2.367-8.363-4.892-11.2-13.412-11.045s-8.835.474-8.835,2.209v34.555c0,7.416,4.259,10.888,14.043,10.888,15.147,0,18.934-5.838,22.563-19.25,1.262-4.733,1.736-5.365,3.156-5.365,1.262,0,1.262.473,1.262,15.936,0,12.15-.158,12.466-4.576,12.466-9.309,0-21.617-.631-32.345-.631-8.206,0-13.571.631-19.723.631-3.314,0-4.891-.315-4.891-2.052,0-1.42,1.261-1.893,4.1-2.366,4.892-.789,6-2.525,6-8.521Z" transform="translate(-1732.534 -4278.584)"/>
          <path id="パス_67" data-name="パス 67" d="M1870.719,4347.154c-2.523,0-3.312.475-5.206,8.206-3.472,14.357-4.1,17.04-4.1,19.25,0,1.894.631,3.629,4.576,4.26,3,.474,5.049.474,5.049,2.208,0,1.421-.947,1.737-2.683,1.737-2.682,0-5.995-.632-9.624-.632a43.652,43.652,0,0,0-8.836.632,1.579,1.579,0,0,1-1.736-1.737c0-3,4.734-1.1,6.154-5.365,8.835-26.351,16.25-60.117,24.455-90.1.947-3.156,1.42-4.734,3-4.734s1.894.947,2.682,3.788c7.732,27.77,13.255,47.336,24.616,88.2.789,2.84,2.209,5.523,3.945,6.154,2.051.631,4.734.946,4.734,2.525,0,.946-.947,1.262-3.314,1.262-3.471,0-6-.632-9.624-.632-4.1,0-8.205.632-11.2.632-1.42,0-2.682-.474-2.682-1.737s1.578-2.05,4.1-2.05c2.209,0,4.1-.631,4.1-3.945,0-1.578-1.42-6.155-5.049-20.04-1.736-6.627-2.368-7.89-5.209-7.89Zm6.154-35.975c-6.47,25.719-7.574,30.295-7.574,31.085,0,.945.475,1.1,9.468,1.1,11.046,0,11.361,0,11.361-1.263,0-2.05-3.473-12.306-8.68-32.976-.63-2.525-1.262-3.156-2.208-3.156C1878.136,4305.972,1877.978,4306.76,1876.874,4311.179Z" transform="translate(-1718.567 -4278.99)"/>
          <path id="パス_68" data-name="パス 68" d="M1961.16,4348.485c0,27.3-11.518,35.818-27.454,35.818-12.465,0-27.455-5.522-27.455-25.4v-65.954c0-4.1.158-5.839-1.1-6.155-6-1.42-6.786-.631-6.786-3,0-.946,1.578-1.419,2.841-1.419,4.418,0,5.05.631,10.729.631,7.1,0,9.941-.631,12.466-.631s3.787.158,3.787,1.736c0,1.42-1.578,1.735-4.892,2.209-3.471.473-6.627.473-6.627,9.625v65.482c0,14.042,10.572,19.091,18.62,19.091,10.886,0,21.459-7.258,21.459-26.981v-54.279c0-9.784-1.736-11.992-6.312-12.465-3.314-.315-4.418-.315-4.418-2.367,0-1.1.947-2.051,2.84-2.051,2.051,0,3.787.631,9.151.631,6.943,0,8.679-.631,10.573-.631,1.578,0,2.051.631,2.051,2.051,0,1.894-1.736,1.578-5.207,2.367-3.314.789-4.261,2.209-4.261,10.887Z" transform="translate(-1704.885 -4278.584)"/>
          <path id="パス_69" data-name="パス 69" d="M1995.421,4370.913c0,5.049,1.578,7.415,3.945,7.89,4.1.789,7.732.631,7.732,2.523,0,1.736-1.578,1.9-3.314,1.9-1.893,0-4.891-.632-13.569-.632a130.534,130.534,0,0,0-13.411.632c-2.525,0-3.156-.632-3.157-1.9s.473-2.051,6.627-2.523c3.945-.316,4.734-2.21,4.734-8.206v-80.786c0-2.052-.475-2.21-7.89-2.21-14.359,0-14.989,22.407-18.618,22.407-1.262,0-1.736-.316-1.736-3.63,0-4.892.947-9.309,1.736-14.989,1.419-10.73,2.681-11.993,3.471-11.993,3,0,2.05,4.419,5.837,4.419h46.232c8.047,0,5.523-4.419,8.679-4.419,1.42,0,1.894.947,1.894,4.419a128.328,128.328,0,0,1-.631,13.884c-.947,10.1-1.578,12.309-3.156,12.309-4.418,0,0-22.407-16.726-22.407-8.2,0-8.677.158-8.677,2.21Z" transform="translate(-1688.968 -4279.396)"/>
          <path id="パス_70" data-name="パス 70" d="M2051.2,4371.363c0,3.787,1.1,6.153,4.259,6.627,3,.473,6,.473,6,2.524,0,1.736-1.261,1.894-3.787,1.894-2.681,0-2.839-.631-11.359-.631-9.467,0-10.729.631-13.254.631-2.84,0-3.156-.631-3.156-1.894,0-1.578,1.894-2.051,6-2.524s4.892-2.051,4.892-7.574v-30.611c0-4.259-1.1-4.892-10.73-26.98-10.1-23.354-10.888-25.088-14.359-26.036-1.894-.473-3.629-.473-3.629-2.051a2.283,2.283,0,0,1,2.525-2.367c1.735,0,6.626.631,11.2.631a102.057,102.057,0,0,0,11.361-.631c1.42,0,3.156.631,3.156,2.209,0,2.052-1.894,1.578-4.418,2.209-3.629.947-4.26,1.578-4.26,3.629,0,1.419,1.736,5.838,6.785,17.83,8.364,20.039,9.31,21.458,10.415,21.458,1.42,0,1.736-1.893,8.677-16.409s8.995-20.987,8.995-22.721c0-2.052-1.263-2.683-6.154-3.788-2.052-.473-3.314-.631-3.314-1.894,0-1.577,1.1-2.524,2.841-2.524,3,0,6.312.631,9.466.631,5.365,0,6.312-.631,8.994-.631,1.262,0,1.735.631,1.735,2.051,0,1.894-.789,1.894-2.367,2.367-4.261,1.263-5.048,2.682-14.831,23.826-10.729,23.353-11.676,24.456-11.676,27.928Z" transform="translate(-1673.896 -4278.584)"/>
          <path id="パス_71" data-name="パス 71" d="M1933.967,4415.282c-3.787-1.736-6.154-.789-6.154-3,0-1.263.948-2.052,2.84-2.052,3,0,7.259.631,10.888.631,2.682,0,9.309-.631,10.571-.631,2.209,0,2.525.789,2.525,2.209,0,2.209-4.418,1.893-6.942,2.84-3.471,1.42-4.733,3.787-7.258,8.678-8.362,16.253-10.413,17.2-10.413,18.935,0,1.419,1.1,3.944,8.363,12.938,4.576,5.679,7.1,8.677,11.991,9.626,4.1.787,5.681.944,5.681,2.68,0,1.578-.789,1.736-3.314,1.736-3,0-5.995-.631-13.569-.631-10.571,0-11.362.631-13.885.631-1.578,0-2.209-.631-2.209-1.894,0-1.1.631-1.893,5.048-2.522,2.209-.316,2.525-1.107,2.525-2.525,0-.789-.631-1.422-3.156-5.366-2.525-4.1-3.314-4.575-3.786-4.575-1.736,0-3,3.313-6.47,7.1-5.838,6.311-11.833,10.1-20.67,10.1-15.936,0-25.562-11.045-25.562-26.667,0-23.036,23.667-28.559,23.667-31.241,0-2.525-9.783-10.572-9.783-23.984,0-12.782,10.255-20.354,22.09-20.354,13.411,0,21.458,8.046,21.458,18.145,0,7.89-3.787,11.991-12.938,17.987-8.205,5.366-8.837,5.523-8.837,6.785,0,.474,1.42,1.579,9.468,13.412,8.994,12.939,10.1,14.675,11.2,14.675,1.42,0,8.995-16.568,8.993-20.04A3.675,3.675,0,0,0,1933.967,4415.282Zm-13.411,33.451c0-1.421-.158-1.1-10.1-14.674-9.783-13.411-11.993-17.829-13.728-17.829-.789,0-16.252,6.627-16.252,23.352,0,10.571,6.47,23.983,19.881,23.983C1912.667,4463.564,1920.556,4449.994,1920.556,4448.732Zm-1.58-61.379c0-8.678-3.471-15.621-12.622-15.621-7.259,0-11.991,6-11.991,13.728,0,9.941,8.679,21.3,9.783,21.3C1905.092,4406.761,1918.978,4400.765,1918.976,4387.353Z" transform="translate(-1712.339 -4255.262)"/>
          <path id="パス_72" data-name="パス 72" d="M1800.485,4545.488c0,3.786,1.1,6.153,4.26,6.625,3,.474,6,.474,6,2.525,0,1.735-1.262,1.894-3.787,1.894-2.683,0-2.84-.632-11.361-.632-9.467,0-10.729.632-13.254.632-2.84,0-3.156-.632-3.156-1.894,0-1.578,1.894-2.052,6-2.525s4.89-2.051,4.89-7.573v-30.61c0-4.261-1.1-4.892-10.73-26.982-10.1-23.352-10.888-25.088-14.36-26.035-1.894-.472-3.628-.472-3.628-2.052a2.281,2.281,0,0,1,2.523-2.366c1.736,0,6.628.632,11.2.632a101.918,101.918,0,0,0,11.36-.632c1.42,0,3.156.632,3.156,2.209,0,2.052-1.894,1.58-4.418,2.209-3.628.947-4.259,1.578-4.259,3.629,0,1.42,1.736,5.838,6.785,17.83,8.362,20.039,9.309,21.459,10.414,21.459,1.42,0,1.736-1.894,8.679-16.41s8.993-20.985,8.993-22.721c0-2.051-1.263-2.683-6.154-3.787-2.052-.472-3.314-.629-3.314-1.894,0-1.577,1.1-2.524,2.84-2.524,3,0,6.312.632,9.468.632,5.364,0,6.311-.632,8.993-.632,1.262,0,1.736.632,1.736,2.051,0,1.9-.789,1.9-2.365,2.367-4.261,1.263-5.05,2.683-14.833,23.826-10.729,23.354-11.674,24.458-11.674,27.929Z" transform="translate(-1742.226 -4231.127)"/>
          <path id="パス_73" data-name="パス 73" d="M1845.265,4455.007c18.145,0,34.714,22.249,34.714,51.911s-16.566,51.914-34.711,51.914-34.714-22.249-34.715-51.914S1827.12,4455.007,1845.265,4455.007Zm0,100.037c10.255,0,22.089-12.465,22.089-48.126s-11.834-48.125-22.091-48.125-22.09,12.466-22.089,48.125S1835.01,4555.044,1845.267,4555.044Z" transform="translate(-1728.817 -4231.533)"/>
          <path id="パス_74" data-name="パス 74" d="M1930.513,4522.609c0,27.3-11.518,35.817-27.454,35.817-12.465,0-27.455-5.523-27.455-25.4v-65.955c0-4.1.158-5.839-1.1-6.154-6-1.42-6.785-.629-6.785-3,0-.946,1.578-1.421,2.84-1.421,4.418,0,5.049.632,10.729.632,7.1,0,9.941-.632,12.466-.632s3.787.158,3.787,1.736c0,1.42-1.578,1.735-4.892,2.21-3.471.472-6.627.472-6.627,9.625l0,65.481c0,14.042,10.572,19.092,18.619,19.092,10.888,0,21.459-7.259,21.459-26.981v-54.278c0-9.783-1.736-11.993-6.312-12.466-3.314-.314-4.418-.314-4.418-2.367,0-1.1.947-2.051,2.84-2.051,2.052,0,3.787.632,9.151.632,6.943,0,8.679-.632,10.573-.632,1.578,0,2.051.632,2.051,2.051,0,1.9-1.736,1.579-5.207,2.367-3.314.789-4.26,2.209-4.26,10.888Z" transform="translate(-1713.237 -4231.127)"/>
          <path id="パス_75" data-name="パス 75" d="M1965.4,4545.034c0,5.05,1.578,7.417,3.945,7.89,4.1.79,7.731.631,7.731,2.525,0,1.736-1.578,1.894-3.314,1.894-1.894,0-4.89-.631-13.569-.631a130.64,130.64,0,0,0-13.411.631c-2.525,0-3.156-.631-3.156-1.894s.473-2.051,6.626-2.525c3.945-.315,4.734-2.208,4.734-8.2v-80.787c0-2.052-.473-2.209-7.89-2.209-14.358,0-14.989,22.408-18.618,22.408-1.262,0-1.736-.317-1.736-3.631,0-4.891.947-9.309,1.736-14.989,1.42-10.729,2.683-11.991,3.471-11.991,3,0,2.05,4.418,5.837,4.418h46.232c8.047,0,5.523-4.418,8.679-4.418,1.42,0,1.894.947,1.894,4.418a128.435,128.435,0,0,1-.631,13.885c-.947,10.1-1.578,12.309-3.156,12.309-4.418,0,0-22.408-16.725-22.408-8.205,0-8.679.158-8.679,2.209Z" transform="translate(-1697.151 -4231.938)"/>
          <path id="パス_76" data-name="パス 76" d="M2038.028,4467.382c0-4.1-.633-6-3.472-6.469-3.787-.629-5.838-.629-5.838-2.367,0-1.576,1.42-2.051,3.628-2.051,3.156,0,5.365.632,11.361.632,7.732,0,8.836-.632,11.676-.632,1.893,0,2.367.632,2.368,1.421,0,1.893-2.525,2.525-6,3-2.052.315-3.314,1.578-3.314,3v81.577c0,3.786.947,5.837,2.684,6.625,3,1.263,6.153.789,6.153,2.684,0,1.1-.473,1.735-2.525,1.735-2.367,0-5.365-.632-11.36-.632-7.1,0-7.89.632-10.1.632-3.471,0-4.26-.474-4.26-2.209,0-1.1.789-1.42,4.576-2.209,3.472-.788,4.418-2.209,4.418-6.468v-38.658c0-.945-.316-1.578-1.262-1.578h-32.5c-1.1,0-1.262.633-1.262,1.894v38.186c0,4.575,1.893,6.153,4.418,6.625,2.367.474,4.734.632,4.734,2.368,0,1.262-.473,2.051-3,2.051-2.367,0-2.367-.632-11.36-.632-8.837,0-9.468.632-12.15.632-1.736,0-2.367-.789-2.367-2.367,0-.79.631-1.579,2.051-1.895,6.627-1.42,7.259-2.682,7.259-7.1v-78.736c0-3.945-.632-5.05-2.367-5.523-5.365-1.42-6.785-.472-6.785-2.525,0-.945.316-1.893,3.156-1.893,2.209,0,6.942.632,11.044.632,4.577,0,8.206-.632,11.046-.632,2.523,0,3.156.632,3.156,1.893,0,2.211-1.578,2.053-4.734,2.525-2.367.315-4.1,1.42-4.1,4.261v34.081c0,1.105.314,1.737,1.418,1.737h32.347c1.1,0,1.262-.474,1.262-2.052Z" transform="translate(-1681.741 -4231.127)"/>
          <path id="パス_77" data-name="パス 77" d="M1853.086,4609.67c1.262,4.259,1.894,8.046,3.156,8.046.789,0,2.209-3.629,2.84-6l17.986-63.43c1.1-3.628,1.736-4.259,3.314-4.259h3.471c5.048,0,10.1-.475,12.623-.475,1.262,0,2.209.633,2.209,1.735,0,1.9-1.1,1.42-6.943,2.683-1.42.316-2.209,2.367-2.209,9.625,0,11.36,2.368,56.171,3,74,.159,4.576,1.58,7.1,3.945,7.574,3.787.789,5.523.947,5.523,2.368,0,1.735-.947,2.051-2.84,2.051a112.041,112.041,0,0,0-11.676-.631c-6.154,0-10.888.631-12.624.631-2.365,0-3-.789-3-1.893,0-1.42,1.1-1.894,5.681-2.525s4.733-2.367,4.733-8.677c0-11.361-.79-29.349-2.052-59.171-.473-10.571,0-13.727-.947-13.727-1.736,0-1.42,3.314-18.3,59.958-6.312,21.3-5.207,25.4-7.732,25.4-1.892,0-.947-2.367-13.571-45.443-11.046-38.026-11.2-39.92-12.466-39.92-2.209,0-2.681,46.231-2.681,60.748,0,18.146,1.106,19.723,4.26,20.827,2.209.789,7.574,0,7.574,2.368,0,.946-.474,2.051-2.84,2.051-2.683,0-3.944-.631-11.2-.631a84.032,84.032,0,0,0-9.783.631c-1.42,0-2.525,0-2.525-1.893,0-2.209,2.525-1.894,5.207-2.525,4.26-1.262,4.418-5.679,4.892-14.2.946-14.989,1.892-62.957,1.891-68.795,0-5.207-.316-7.417-4.261-8.206-3.154-.629-6.153-.629-6.153-2.525a1.948,1.948,0,0,1,2.051-1.893c3.786,0,7.415.475,13.253.475h3.314c2.84,0,3.472,0,3.945,1.577Z" transform="translate(-1728.964 -4207.399)"/>
          <path id="パス_78" data-name="パス 78" d="M1895.992,4553.182c0-3.472-.948-4.734-3-5.208-3.787-.946-6.154-.472-6.154-2.525,0-1.1.947-1.893,3.945-1.893,3.629,0,10.729.633,23.984.633,15.462,0,23.195-.633,26.508-.633s3.628.315,3.628,6.785c0,17.515,0,18.619-1.735,18.619-1.42,0-1.42-.474-2.682-4.1-4.418-12.939-10.1-17.513-23.984-17.513-8.994,0-10.1.945-10.1,3.627v34.556c0,2.525.317,2.839,6.943,2.839,10.257,0,13.57-1.577,15.306-6.942,1.892-5.838,1.735-6.627,3.155-6.627,1.1,0,1.262.79,1.262,3.156,0,3.472-.631,6.312-.63,12.624,0,5.049.631,10.729.631,15.305,0,1.894-.631,2.368-1.736,2.368s-1.578-1.263-2.683-5.05c-2.367-8.363-4.892-11.2-13.413-11.045s-8.835.474-8.835,2.208v34.556c0,7.416,4.26,10.887,14.044,10.887,15.147,0,18.934-5.838,22.563-19.25,1.261-4.732,1.735-5.365,3.155-5.365,1.262,0,1.262.473,1.262,15.936,0,12.15-.157,12.465-4.575,12.465-9.31,0-21.617-.631-32.347-.631-8.2,0-13.569.631-19.723.631-3.314,0-4.89-.315-4.89-2.051,0-1.421,1.261-1.894,4.1-2.368,4.892-.789,6-2.524,6-8.519Z" transform="translate(-1708.282 -4207.399)"/>
          <path id="パス_79" data-name="パス 79" d="M2004.051,4641.858c0,4.417,0,4.576-1.736,4.576-1.894,0-1.578-1.735-25.563-45.916-21.3-39.289-21.145-41.813-22.723-41.813-.788,0-1.1.474-1.1,3.472v55.541c0,15.464.948,20.67,4.893,21.458,4.417.947,8.047.158,8.047,2.841,0,1.262-.947,1.577-2.367,1.577-1.893,0-2.208-.631-11.044-.631-7.89,0-10.1.631-12.624.631-1.261,0-1.736-.631-1.736-1.577,0-1.895,5.05-2.21,6.785-2.841,3-1.1,3.629-4.418,3.629-9.151v-73.371c0-5.523-.631-8.205-3.629-8.679-3.945-.629-5.365-.472-5.365-2.525,0-1.736,2.209-1.893,3.472-1.893,3.156,0,8.52.315,10.886.315l3.156.159c2.367.158,3,3.156,4.892,6.942l22.565,43.233c13.1,25.089,13.727,25.719,14.358,25.719s.789-.788.789-2.208v-58.065c0-8.837-1.893-11.2-5.521-11.677-3.156-.472-5.365-.946-5.365-2.525a1.957,1.957,0,0,1,2.051-1.893c1.736,0,3.944.633,11.045.633,3.471,0,6.627-.633,9.625-.633,2.051,0,2.525.475,2.525,1.893,0,1.9-1.578,1.9-5.365,2.525-3.629.632-4.576,3.156-4.576,8.363Z" transform="translate(-1694.055 -4207.399)"/>
        </g>
      </g>
    </g>
    <g id="グループ_126" data-name="グループ 126" transform="translate(1834.769 4742.517)">
      <g id="グループ_125" data-name="グループ 125">
        <path id="パス_80" data-name="パス 80" d="M1815.826,4669.265c.757-9.489,13.157-10.132,13.157-17.73a5.457,5.457,0,0,0-5.86-5.709,6.369,6.369,0,0,0-5.254,3.025c-.794,1.247-.946,2.078-1.285,2.078-.265,0-.3-.226-.3-.416,0-1.36,2.722-7.183,8.77-7.183,3.781,0,7.713,2.8,7.713,7.26,0,7.75-10.585,7.409-14.707,15.272h10.284c3.365,0,3.593-2.269,4.007-2.343.3-.039.378.114.378.416s-1.209,3.629-1.814,5.33Z" transform="translate(-1815.826 -4643.33)"/>
        <path id="パス_81" data-name="パス 81" d="M1849.263,4656.449c0,7.069-4.2,13.118-9,13.118s-9-6.049-9-13.118,4.2-13.12,9-13.12S1849.263,4649.378,1849.263,4656.449Zm-9,12.437c3.63,0,5.216-4.839,5.216-12.437,0-8.507-1.587-12.438-5.216-12.438s-5.217,4.838-5.217,12.438C1835.049,4664.955,1836.637,4668.886,1840.266,4668.886Z" transform="translate(-1811.618 -4643.33)"/>
        <path id="パス_82" data-name="パス 82" d="M1846.6,4669.265c.758-9.489,13.157-10.132,13.157-17.73a5.457,5.457,0,0,0-5.86-5.709,6.368,6.368,0,0,0-5.254,3.025c-.794,1.247-.946,2.078-1.285,2.078-.265,0-.3-.226-.3-.416,0-1.36,2.722-7.183,8.77-7.183,3.781,0,7.713,2.8,7.713,7.26,0,7.75-10.585,7.409-14.707,15.272h10.283c3.365,0,3.593-2.269,4.007-2.343.3-.039.378.114.378.416s-1.209,3.629-1.814,5.33Z" transform="translate(-1807.44 -4643.33)"/>
        <path id="パス_83" data-name="パス 83" d="M1868.84,4669.567c-4.422,0-7.22-2.8-7.22-4.954a1.7,1.7,0,0,1,1.853-1.738c1.323,0,2.306,1.323,2.722,2.948a3.554,3.554,0,0,0,3.894,2.836,6.036,6.036,0,0,0,6.048-6.239c0-2.231-1.437-5.142-3.365-6.011-2.079-.945-3.326-.113-3.326-.832,0-.906,4.347.3,4.347-5.482,0-3.137-1.815-4.8-4.5-4.8-4.007,0-4.8,3.667-5.369,3.667-.189,0-.265-.113-.265-.34,0-.264,1.814-5.293,7.07-5.293,3.591,0,6.464,2.723,6.464,5.823a6.076,6.076,0,0,1-2.079,4.537,8.3,8.3,0,0,1,4.045,7.145C1879.161,4663.633,1876.666,4669.567,1868.84,4669.567Z" transform="translate(-1803.346 -4643.33)"/>
        <path id="パス_84" data-name="パス 84" d="M1891.791,4649.984a15.176,15.176,0,0,1,5.445,1.133v4.84c0,.3-.115.416-.3.416-.3,0-.3-.34-.529-.982-.87-2.42-2.155-4.726-5.1-4.726a2.54,2.54,0,0,0-2.759,2.76c0,3.78,9.829,3.893,9.829,9.147,0,2.837-2.231,5.18-6.956,5.18a17.3,17.3,0,0,1-5.975-.947v-5.558c0-.452.115-.679.341-.679.188,0,.34.189.643,1.173,1.021,3.288,3.137,5.329,5.822,5.329a3.053,3.053,0,0,0,3.251-3.212c0-3.856-9.829-3.366-9.829-9C1885.667,4652.329,1887.86,4649.984,1891.791,4649.984Z" transform="translate(-1796.854 -4641.516)"/>
        <path id="パス_85" data-name="パス 85" d="M1910.5,4664.426c-1.816,1.361-4.312,3.327-7.146,3.327-3.062,0-4.272-1.664-4.272-3.894v-9.339c0-2.684-2.948-1.625-2.948-2.571,0-.68,2.193-.188,6.351-1.966v13.308c0,1.589.643,2.5,2.57,2.5a7.878,7.878,0,0,0,5.445-2.269v-9c0-2.684-2.949-1.625-2.949-2.571,0-.68,2.192-.188,6.351-1.966v13.232c0,2.686,2.948,1.627,2.948,2.572,0,.68-2.193.188-6.35,1.966Z" transform="translate(-1793.938 -4641.516)"/>
        <path id="パス_86" data-name="パス 86" d="M1930.254,4664.8c0,2.383,2.8,1.249,2.8,2.268,0,.342-.189.455-.6.455-.946,0-1.816-.075-3.9-.075s-2.948.075-3.894.075c-.415,0-.6-.113-.6-.455,0-1.02,2.8.115,2.8-2.268V4654.37a2.2,2.2,0,0,0-2.5-2.42c-1.664,0-3.213.833-5.066,2.571V4664.8c0,2.383,2.8,1.249,2.8,2.268,0,.342-.188.455-.6.455-.946,0-1.815-.075-3.894-.075s-2.948.075-3.894.075c-.417,0-.6-.113-.6-.455,0-1.02,2.8.115,2.8-2.268V4654.37c0-2.533-2.8-1.474-2.8-2.345,0-.679,1.021-.036,6.2-2.041v3.479c1.36-1.362,4.045-3.479,6.881-3.479a3.724,3.724,0,0,1,4.045,3.554c2.722-2.041,4.309-3.478,6.919-3.554,2.759-.038,4.082,1.323,4.082,3.479v11.34c0,2.383,2.8,1.249,2.8,2.268,0,.342-.188.455-.6.455-.944,0-1.815-.075-3.894-.075s-2.948.075-3.894.075c-.416,0-.6-.113-.6-.455,0-1.02,2.8.115,2.8-2.268V4654.37c0-1.626-.756-2.42-2.344-2.42-1.1,0-2.608.455-5.218,2.345Z" transform="translate(-1789.317 -4641.515)"/>
        <path id="パス_87" data-name="パス 87" d="M1955.551,4664.8c0,2.383,2.8,1.249,2.8,2.268,0,.342-.188.455-.6.455-.946,0-1.815-.075-3.894-.075s-2.95.075-3.894.075c-.416,0-.6-.113-.6-.455,0-1.02,2.8.115,2.8-2.268V4654.37a2.2,2.2,0,0,0-2.5-2.42c-1.663,0-3.213.833-5.066,2.571V4664.8c0,2.383,2.8,1.249,2.8,2.268,0,.342-.19.455-.606.455-.944,0-1.815-.075-3.894-.075s-2.948.075-3.894.075c-.416,0-.6-.113-.6-.455,0-1.02,2.8.115,2.8-2.268V4654.37c0-2.533-2.8-1.474-2.8-2.345,0-.679,1.021-.036,6.2-2.041v3.479c1.362-1.362,4.045-3.479,6.881-3.479a3.723,3.723,0,0,1,4.046,3.554c2.722-2.041,4.31-3.478,6.919-3.554,2.759-.038,4.082,1.323,4.082,3.479v11.34c0,2.383,2.8,1.249,2.8,2.268,0,.342-.189.455-.6.455-.946,0-1.816-.075-3.894-.075s-2.95.075-3.894.075c-.416,0-.606-.113-.606-.455,0-1.02,2.8.115,2.8-2.268V4654.37c0-1.626-.757-2.42-2.345-2.42-1.1,0-2.607.455-5.216,2.345Z" transform="translate(-1782.423 -4641.515)"/>
        <path id="パス_88" data-name="パス 88" d="M1966.542,4658c.076,3.779,1.74,7.107,6.466,7.107a6.419,6.419,0,0,0,3.894-1.134c1.361-.945,1.437-1.966,1.89-1.966.226,0,.34.151.34.416,0,.718-1.813,5.331-7.6,5.331a8.426,8.426,0,0,1-8.394-8.62c0-4.613,3.441-9.149,8.62-9.149,4.915,0,7.335,4.046,7.335,8.016Zm9.15-.907c0-4.652-1.437-6.427-3.969-6.427-2.724,0-5.181,2.834-5.256,6.427Z" transform="translate(-1775.677 -4641.516)"/>
        <path id="パス_89" data-name="パス 89" d="M1979.428,4654.521c0-2.684-2.949-1.625-2.949-2.571,0-.68,2.193-.188,6.351-1.966v4.916h.076c1.738-4.008,3.44-4.916,5.1-4.916,1.513,0,2.345.756,2.345,2.041a1.757,1.757,0,0,1-1.929,1.816c-1.285,0-1.134-.907-2.532-.907-1.588,0-3.063,2.495-3.063,6.615v5.254c0,2.383,2.8,1.249,2.8,2.269,0,.342-.19.454-.6.454-.945,0-1.816-.076-3.894-.076s-2.95.076-3.894.076c-.417,0-.606-.112-.606-.454,0-1.02,2.8.114,2.8-2.269Z" transform="translate(-1772.041 -4641.516)"/>
      </g>
    </g>
  </g>
</svg>
